<svg xmlns="http://www.w3.org/2000/svg" viewBox="0 0 140.5522896039604 47.92388613861385">
  <g transform="translate(10 12.293471534653463) rotate(0 60.276144801980195 11.668471534653463)" stroke="none">
    <path fill="#1e1e1e" d="M 0,-2.67 Q 0,-2.67 1.12,-2.69 2.24,-2.71 3.90,-2.77 5.56,-2.84 7.35,-2.88 9.13,-2.92 10.83,-2.96 12.53,-3.00 13.97,-2.97 15.42,-2.94 16.59,-2.86 17.75,-2.78 19.09,-2.38 20.43,-1.97 22.44,-1.36 24.45,-0.75 25.56,-0.40 26.66,-0.05 27.73,0.28 28.79,0.63 30.77,1.29 32.75,1.96 34.60,2.60 36.45,3.25 38.27,4.04 40.08,4.83 41.52,5.58 42.96,6.34 44.41,7.04 45.87,7.75 47.61,8.70 49.35,9.66 51.09,10.76 52.83,11.86 54.45,12.90 56.07,13.95 57.72,15.20 59.37,16.45 60.61,17.43 61.85,18.41 62.67,19.14 63.49,19.87 64.71,21.16 65.92,22.46 66.18,23.53 66.44,24.60 66.25,24.09 66.06,23.59 66.26,23.95 66.45,24.32 66.56,24.73 66.66,25.13 66.67,25.55 66.67,25.97 66.57,26.37 66.48,26.78 66.29,27.15 66.10,27.52 65.82,27.84 65.55,28.15 65.21,28.39 64.87,28.63 64.48,28.79 64.09,28.94 63.67,28.99 63.26,29.05 62.84,29.00 62.43,28.95 62.04,28.81 61.64,28.67 61.30,28.43 60.95,28.20 60.67,27.89 60.39,27.58 60.16,26.04 59.93,24.51 59.45,23.38 58.97,22.26 58.79,21.06 58.61,19.86 58.58,18.66 58.55,17.46 58.65,16.30 58.74,15.13 59.29,14.16 59.83,13.19 61.25,11.47 62.67,9.76 63.51,8.89 64.36,8.03 65.14,7.26 65.92,6.49 67.13,5.37 68.34,4.25 69.26,3.65 70.19,3.05 71.33,2.66 72.48,2.26 73.60,1.74 74.72,1.23 76.40,0.47 78.08,-0.27 79.49,-0.91 80.90,-1.54 81.98,-1.90 83.06,-2.25 84.23,-2.50 85.39,-2.75 87.16,-3.12 88.94,-3.48 91.05,-3.86 93.16,-4.24 94.30,-4.38 95.44,-4.53 96.90,-4.75 98.37,-4.97 99.56,-5.18 100.74,-5.38 102.14,-5.54 103.54,-5.71 105.37,-5.71 107.20,-5.71 108.74,-5.62 110.28,-5.52 112.03,-5.33 113.78,-5.13 115.24,-4.95 116.70,-4.77 118.83,-4.53 120.96,-4.29 121.42,-4.15 121.88,-4.01 122.27,-3.72 122.66,-3.44 122.94,-3.05 123.22,-2.66 123.36,-2.19 123.50,-1.73 123.49,-1.25 123.47,-0.77 123.31,-0.31 123.14,0.13 122.84,0.50 122.53,0.88 122.13,1.14 121.72,1.40 121.25,1.51 120.78,1.63 120.30,1.59 119.82,1.54 119.38,1.35 118.93,1.16 118.58,0.84 118.22,0.52 117.98,0.09 117.75,-0.32 117.66,-0.79 117.57,-1.26 117.63,-1.74 117.70,-2.22 117.91,-2.65 118.13,-3.08 118.47,-3.42 118.81,-3.76 119.25,-3.98 119.68,-4.19 120.16,-4.25 120.64,-4.32 121.11,-4.23 121.58,-4.13 122.00,-3.89 122.42,-3.66 122.74,-3.30 123.06,-2.94 123.25,-2.49 123.44,-2.05 123.48,-1.57 123.52,-1.09 123.40,-0.62 123.28,-0.15 123.02,0.24 122.76,0.65 122.38,0.95 122.01,1.25 121.55,1.42 121.10,1.58 120.62,1.59 120.14,1.61 120.14,1.61 120.14,1.61 118.14,1.33 116.15,1.05 114.82,0.96 113.48,0.88 111.88,0.91 110.28,0.94 108.74,1.03 107.21,1.13 105.26,1.15 103.32,1.17 102.01,1.31 100.69,1.46 99.35,1.67 98.01,1.89 96.27,2.15 94.53,2.42 92.45,2.92 90.37,3.42 88.85,3.72 87.34,4.01 85.97,4.24 84.60,4.46 83.53,4.83 82.45,5.20 80.89,5.96 79.32,6.72 77.61,7.52 75.91,8.33 74.35,8.86 72.79,9.40 71.81,10.32 70.83,11.23 69.47,12.77 68.12,14.31 66.98,15.60 65.85,16.90 65.83,18.04 65.81,19.19 65.91,20.41 66.00,21.64 66.29,22.69 66.58,23.74 66.57,25.13 66.56,26.51 66.31,25.05 66.06,23.59 66.26,23.95 66.45,24.32 66.56,24.73 66.66,25.13 66.67,25.55 66.67,25.97 66.57,26.37 66.48,26.78 66.29,27.15 66.10,27.52 65.82,27.84 65.55,28.15 65.21,28.39 64.87,28.63 64.48,28.79 64.09,28.94 63.67,28.99 63.26,29.05 62.84,29.00 62.43,28.95 62.04,28.81 61.65,28.67 61.30,28.43 60.95,28.20 60.67,27.89 60.39,27.58 60.16,26.79 59.92,26.01 59.21,25.00 58.49,24.00 57.65,23.25 56.80,22.50 55.40,21.39 54.01,20.29 52.53,19.25 51.05,18.22 49.44,17.21 47.84,16.20 46.21,15.26 44.58,14.32 43.03,13.51 41.48,12.71 40.02,11.94 38.57,11.17 37.28,10.49 36.00,9.80 34.30,9.15 32.59,8.50 30.72,7.86 28.84,7.23 26.87,6.62 24.90,6.01 23.79,5.71 22.68,5.41 21.59,5.12 20.50,4.84 18.77,4.33 17.04,3.82 15.97,3.51 14.91,3.21 13.72,3.10 12.53,3.00 10.83,2.96 9.13,2.92 7.35,2.88 5.56,2.84 3.90,2.77 2.24,2.71 1.12,2.69 0,2.67 -0.32,2.63 -0.64,2.59 -0.94,2.48 -1.24,2.36 -1.50,2.18 -1.77,2.00 -1.98,1.76 -2.20,1.51 -2.35,1.23 -2.50,0.94 -2.57,0.63 -2.65,0.32 -2.65,-0.00 -2.65,-0.32 -2.57,-0.63 -2.50,-0.94 -2.35,-1.23 -2.20,-1.51 -1.98,-1.76 -1.77,-2.00 -1.50,-2.18 -1.24,-2.36 -0.94,-2.48 -0.63,-2.59 -0.31,-2.63 0.00,-2.67 0.00,-2.67 L 0,-2.67 Z"/>
  </g>
</svg>
