<svg xmlns="http://www.w3.org/2000/svg" viewBox="0 0 157.9060952970297 47.99350247524751">
  <g transform="translate(10 37.99350247524751) rotate(0 68.95304764851485 -13.996751237623755)" stroke="none">
    <path fill="#1e1e1e" d="M -2.48,-0.83 Q -2.48,-0.83 -2.28,-1.55 -2.08,-2.28 -1.72,-3.40 -1.36,-4.52 -0.82,-5.73 -0.28,-6.95 0.23,-7.89 0.76,-8.82 1.67,-10.19 2.57,-11.56 3.26,-12.38 3.94,-13.21 4.77,-14.05 5.61,-14.90 6.47,-15.72 7.34,-16.54 8.18,-17.30 9.02,-18.06 10.44,-19.44 11.87,-20.81 13.30,-22.05 14.73,-23.29 15.86,-24.23 16.98,-25.17 18.57,-26.12 20.15,-27.07 21.18,-27.52 22.21,-27.97 23.47,-28.39 24.73,-28.81 26.13,-29.17 27.53,-29.53 28.91,-29.83 30.29,-30.13 31.54,-30.34 32.79,-30.55 34.40,-30.76 36.01,-30.96 37.73,-30.74 39.45,-30.51 40.84,-29.95 42.22,-29.38 43.41,-28.86 44.59,-28.33 45.74,-27.76 46.89,-27.18 47.87,-26.73 48.84,-26.27 50.39,-25.57 51.93,-24.88 53.53,-24.07 55.13,-23.26 56.14,-22.70 57.14,-22.14 58.23,-21.49 59.33,-20.84 60.33,-20.22 61.32,-19.61 62.70,-18.72 64.08,-17.83 64.87,-17.10 65.65,-16.37 66.54,-15.57 67.44,-14.78 68.39,-13.93 69.34,-13.08 70.23,-12.11 71.11,-11.14 71.81,-10.00 72.50,-8.87 70.62,-8.32 68.73,-7.77 68.38,-8.90 68.02,-10.03 68.18,-11.10 68.34,-12.18 68.99,-13.30 69.65,-14.42 71.15,-15.50 72.65,-16.58 74.42,-17.57 76.18,-18.56 77.62,-19.36 79.06,-20.17 80.52,-20.85 81.98,-21.54 83.70,-22.10 85.41,-22.66 86.80,-23.10 88.19,-23.54 89.50,-23.81 90.81,-24.09 92.82,-24.11 94.84,-24.13 96.13,-24.11 97.42,-24.09 98.82,-24.10 100.21,-24.11 101.42,-24.15 102.62,-24.20 104.08,-24.33 105.55,-24.47 107.23,-24.55 108.91,-24.63 110.64,-24.48 112.37,-24.33 114.11,-24.05 115.85,-23.76 117.56,-23.38 119.27,-23.00 121.18,-22.45 123.08,-21.90 124.24,-21.44 125.40,-20.97 126.52,-20.40 127.64,-19.83 129.28,-18.89 130.92,-17.95 131.94,-17.18 132.97,-16.41 133.71,-15.22 134.46,-14.03 135.17,-13.11 135.88,-12.18 137.01,-10.49 138.13,-8.80 139.57,-6.50 141.02,-4.21 141.12,-3.68 141.22,-3.15 141.14,-2.62 141.06,-2.09 140.82,-1.61 140.58,-1.13 140.20,-0.76 139.82,-0.38 139.33,-0.14 138.85,0.08 138.32,0.15 137.79,0.22 137.26,0.11 136.74,0.01 136.27,-0.25 135.81,-0.52 135.45,-0.92 135.09,-1.32 134.89,-1.81 134.68,-2.31 134.64,-2.84 134.60,-3.38 134.73,-3.90 134.87,-4.42 135.16,-4.87 135.45,-5.32 135.87,-5.65 136.29,-5.98 136.80,-6.16 137.30,-6.35 137.84,-6.36 138.37,-6.37 138.88,-6.21 139.40,-6.04 139.83,-5.73 140.26,-5.41 140.57,-4.97 140.88,-4.54 141.04,-4.02 141.19,-3.51 141.17,-2.97 141.15,-2.44 140.96,-1.93 140.77,-1.43 140.44,-1.02 140.10,-0.60 139.64,-0.32 139.19,-0.03 138.67,0.09 138.15,0.21 137.61,0.16 137.08,0.12 136.59,-0.09 136.09,-0.31 135.70,-0.67 135.30,-1.03 135.04,-1.50 134.78,-1.97 134.78,-1.97 134.78,-1.96 134.18,-2.88 133.58,-3.80 132.57,-5.23 131.57,-6.67 130.49,-8.18 129.41,-9.69 128.48,-11.10 127.55,-12.51 126.18,-13.32 124.80,-14.12 123.03,-14.88 121.25,-15.63 119.50,-16.10 117.74,-16.57 116.24,-16.90 114.75,-17.24 113.14,-17.50 111.54,-17.76 110.23,-17.89 108.92,-18.03 107.42,-18.06 105.92,-18.09 104.47,-18.00 103.02,-17.91 101.79,-17.80 100.56,-17.69 99.12,-17.55 97.68,-17.40 96.26,-17.28 94.84,-17.15 93.03,-17.14 91.22,-17.13 90.15,-16.87 89.07,-16.61 87.52,-16.08 85.97,-15.54 84.81,-15.11 83.65,-14.68 82.44,-14.02 81.24,-13.36 79.71,-12.41 78.18,-11.46 76.79,-10.65 75.40,-9.84 75.27,-8.59 75.14,-7.34 74.95,-6.14 74.77,-4.95 74.18,-3.98 73.60,-3.01 71.63,-2.48 69.67,-1.94 68.42,-2.99 67.16,-4.03 66.56,-5.25 65.96,-6.46 65.23,-7.46 64.50,-8.46 63.51,-9.36 62.53,-10.26 61.51,-11.52 60.49,-12.78 59.33,-13.60 58.18,-14.41 57.24,-14.97 56.31,-15.52 55.25,-16.09 54.19,-16.66 53.20,-17.18 52.20,-17.70 50.73,-18.47 49.27,-19.25 47.77,-19.97 46.26,-20.70 45.26,-21.15 44.26,-21.61 43.21,-22.08 42.15,-22.54 41.10,-22.96 40.05,-23.37 38.25,-24.13 36.46,-24.89 35.14,-24.80 33.81,-24.72 32.75,-24.52 31.69,-24.33 30.46,-24.00 29.23,-23.66 28.03,-23.27 26.83,-22.88 25.82,-22.50 24.80,-22.11 23.35,-21.41 21.89,-20.71 20.88,-20.05 19.87,-19.38 18.69,-18.43 17.50,-17.48 16.13,-16.21 14.77,-14.94 13.25,-13.50 11.74,-12.06 10.29,-10.56 8.85,-9.05 8.03,-8.02 7.21,-6.99 6.50,-6.12 5.80,-5.24 5.10,-4.27 4.41,-3.29 3.72,-1.92 3.04,-0.55 2.76,0.14 2.48,0.83 2.34,1.12 2.21,1.40 2.01,1.65 1.81,1.89 1.55,2.08 1.30,2.27 1.01,2.39 0.72,2.51 0.41,2.56 0.09,2.61 -0.21,2.59 -0.53,2.56 -0.83,2.46 -1.13,2.36 -1.39,2.19 -1.66,2.02 -1.88,1.79 -2.10,1.56 -2.25,1.29 -2.41,1.02 -2.50,0.71 -2.58,0.41 -2.60,0.09 -2.61,-0.21 -2.54,-0.52 -2.48,-0.83 -2.48,-0.83 L -2.48,-0.83 Z"/>
  </g>
</svg>
