<svg xmlns="http://www.w3.org/2000/svg" viewBox="0 0 336.5686881188119 60.79517326732673">
  <g transform="translate(10 50.79517326732673) rotate(0 158.28434405940595 -20.397586633663366)" stroke="none">
    <path fill="#1971c2" d="M -0.26,-2.47 Q -0.26,-2.47 1.46,-2.60 3.19,-2.73 4.62,-3.03 6.04,-3.33 7.34,-3.76 8.64,-4.18 9.77,-4.66 10.89,-5.14 11.90,-5.64 12.91,-6.13 13.88,-6.64 14.86,-7.15 15.85,-7.66 16.84,-8.16 17.81,-8.65 18.79,-9.13 20.52,-10.04 22.25,-10.95 23.70,-11.73 25.16,-12.51 26.49,-13.36 27.83,-14.21 29.01,-15.26 30.20,-16.31 31.28,-17.47 32.37,-18.62 33.07,-19.60 33.78,-20.57 33.85,-21.66 33.91,-22.75 34.16,-24.20 34.40,-25.66 34.77,-26.74 35.14,-27.82 36.84,-29.06 38.53,-30.30 39.84,-29.78 41.14,-29.27 41.75,-28.20 42.36,-27.13 42.40,-25.95 42.43,-24.77 42.45,-23.67 42.47,-22.57 42.49,-21.48 42.50,-20.40 42.52,-19.31 42.54,-18.23 43.25,-17.43 43.96,-16.64 44.60,-15.77 45.24,-14.90 46.18,-13.99 47.13,-13.07 48.12,-12.32 49.11,-11.57 50.65,-11.17 52.20,-10.78 53.41,-10.49 54.62,-10.19 56.09,-9.92 57.55,-9.65 59.19,-9.34 60.83,-9.03 61.94,-8.90 63.04,-8.76 64.53,-8.74 66.02,-8.73 67.39,-9.09 68.77,-9.45 70.09,-9.99 71.42,-10.53 73.08,-11.25 74.74,-11.96 76.47,-12.80 78.20,-13.65 79.52,-14.42 80.85,-15.19 81.74,-15.89 82.62,-16.60 83.54,-17.63 84.46,-18.66 85.19,-19.57 85.93,-20.47 86.92,-21.61 87.90,-22.75 88.85,-23.81 89.80,-24.87 90.56,-25.69 91.32,-26.51 91.99,-28.14 92.66,-29.76 93.76,-31.37 94.85,-32.97 95.75,-34.17 96.64,-35.36 98.23,-36.11 99.81,-36.87 101.05,-36.50 102.29,-36.13 102.98,-34.93 103.66,-33.72 103.60,-32.54 103.54,-31.36 103.43,-30.11 103.31,-28.86 103.61,-27.79 103.92,-26.72 104.43,-25.75 104.95,-24.78 105.72,-23.72 106.50,-22.66 107.40,-21.61 108.31,-20.55 109.49,-19.95 110.67,-19.34 112.10,-18.76 113.52,-18.17 114.62,-17.68 115.72,-17.20 116.83,-16.75 117.95,-16.30 118.97,-15.91 119.99,-15.53 121.28,-15.19 122.57,-14.85 123.83,-14.82 125.10,-14.80 126.74,-14.82 128.39,-14.84 129.71,-14.99 131.04,-15.15 132.98,-15.51 134.93,-15.87 135.99,-16.07 137.05,-16.27 138.53,-16.70 140.00,-17.12 141.05,-17.57 142.11,-18.01 143.01,-18.59 143.91,-19.17 145.18,-20.21 146.46,-21.25 147.69,-22.12 148.92,-23.00 149.87,-23.97 150.82,-24.94 151.61,-25.90 152.41,-26.86 153.22,-27.66 154.03,-28.46 154.96,-29.50 155.90,-30.54 156.68,-31.34 157.47,-32.15 158.35,-33.04 159.23,-33.92 160.21,-34.83 161.20,-35.75 161.81,-36.73 162.42,-37.71 162.50,-37.71 162.58,-37.72 162.76,-38.13 162.95,-38.54 163.23,-38.89 163.51,-39.25 163.87,-39.53 164.22,-39.80 164.63,-39.99 165.05,-40.17 165.49,-40.25 165.94,-40.33 166.39,-40.30 166.84,-40.28 167.27,-40.14 167.70,-40.00 168.09,-39.77 168.47,-39.53 168.79,-39.21 169.11,-38.89 169.34,-38.51 169.58,-38.12 169.71,-37.69 169.84,-37.25 169.87,-36.80 169.89,-36.35 169.81,-35.91 169.73,-35.46 169.85,-34.39 169.97,-33.33 170.25,-32.29 170.53,-31.25 171.20,-30.26 171.87,-29.26 172.80,-28.32 173.73,-27.38 174.56,-26.60 175.40,-25.83 176.53,-24.92 177.67,-24.00 178.79,-23.28 179.91,-22.56 181.44,-21.70 182.96,-20.84 184.42,-20.08 185.89,-19.32 187.14,-18.69 188.40,-18.06 189.68,-17.49 190.96,-16.91 192.09,-16.50 193.21,-16.09 194.49,-15.80 195.76,-15.51 197.30,-15.17 198.85,-14.84 200.42,-14.52 202.00,-14.20 203.41,-14.07 204.82,-13.93 206.84,-13.86 208.86,-13.79 210.69,-13.77 212.52,-13.75 213.64,-13.77 214.75,-13.79 216.00,-13.82 217.24,-13.85 218.53,-14.00 219.83,-14.14 220.83,-14.67 221.83,-15.21 222.98,-15.87 224.13,-16.54 225.25,-17.37 226.36,-18.21 227.24,-19.19 228.11,-20.18 228.98,-21.23 229.86,-22.28 230.47,-23.20 231.07,-24.12 231.91,-25.25 232.75,-26.38 233.51,-27.50 234.28,-28.63 235.04,-29.81 235.81,-30.99 236.52,-31.98 237.23,-32.98 237.88,-33.97 238.52,-34.95 239.13,-35.94 239.74,-36.93 240.36,-37.81 240.97,-38.68 241.75,-39.83 242.52,-40.99 243.06,-41.84 243.61,-42.69 243.89,-43.04 244.17,-43.38 244.53,-43.65 244.89,-43.92 245.30,-44.09 245.71,-44.26 246.15,-44.33 246.59,-44.40 247.03,-44.37 247.47,-44.33 247.90,-44.19 248.32,-44.05 248.70,-43.81 249.07,-43.57 249.38,-43.25 249.69,-42.92 249.91,-42.54 250.13,-42.15 250.26,-41.72 250.38,-41.29 250.40,-40.85 250.41,-40.40 250.32,-39.97 250.23,-39.53 250.04,-39.13 249.85,-38.72 249.87,-40.63 249.89,-42.53 250.18,-41.40 250.48,-40.28 250.49,-38.96 250.51,-37.63 250.52,-36.50 250.52,-35.37 251.75,-34.75 252.98,-34.12 253.89,-33.53 254.80,-32.94 256.19,-32.27 257.58,-31.61 258.90,-31.02 260.22,-30.42 261.53,-29.81 262.83,-29.19 264.60,-28.49 266.37,-27.79 267.61,-27.26 268.84,-26.74 270.00,-26.26 271.15,-25.78 272.93,-25.05 274.72,-24.32 276.22,-23.73 277.73,-23.13 279.70,-22.39 281.66,-21.65 283.30,-20.92 284.93,-20.18 285.93,-19.82 286.94,-19.47 288.13,-19.28 289.33,-19.09 290.67,-18.99 292.02,-18.89 293.09,-18.92 294.17,-18.95 295.41,-18.98 296.65,-19.01 297.94,-19.29 299.24,-19.56 300.67,-20.32 302.10,-21.08 303.94,-21.48 305.79,-21.89 306.89,-22.13 307.99,-22.37 309.52,-22.81 311.06,-23.26 313.12,-24.27 315.18,-25.28 315.71,-25.42 316.24,-25.56 316.80,-25.52 317.35,-25.48 317.86,-25.27 318.37,-25.06 318.78,-24.70 319.20,-24.33 319.48,-23.85 319.75,-23.38 319.86,-22.84 319.97,-22.30 319.91,-21.75 319.84,-21.20 319.60,-20.70 319.36,-20.20 318.98,-19.81 318.59,-19.41 318.10,-19.16 317.61,-18.91 317.06,-18.83 316.51,-18.75 315.97,-18.84 315.43,-18.94 314.94,-19.21 314.46,-19.47 314.08,-19.88 313.71,-20.29 313.49,-20.79 313.26,-21.30 313.21,-21.85 313.16,-22.40 313.28,-22.93 313.41,-23.47 313.70,-23.94 313.99,-24.41 314.42,-24.76 314.85,-25.11 315.36,-25.31 315.88,-25.50 316.43,-25.53 316.98,-25.55 317.51,-25.39 318.04,-25.24 318.50,-24.92 318.95,-24.60 319.28,-24.16 319.60,-23.71 319.77,-23.19 319.94,-22.66 319.93,-22.11 319.92,-21.56 319.74,-21.04 319.56,-20.52 319.21,-20.08 318.87,-19.65 318.41,-19.34 317.95,-19.04 317.95,-19.04 317.95,-19.04 315.61,-17.95 313.27,-16.85 311.46,-16.29 309.64,-15.72 308.62,-15.43 307.59,-15.14 306.50,-14.81 305.41,-14.49 304.25,-14.19 303.09,-13.89 301.70,-13.21 300.30,-12.53 299.13,-12.31 297.96,-12.09 296.32,-12.07 294.68,-12.05 293.52,-12.09 292.37,-12.14 291.03,-12.25 289.70,-12.37 288.19,-12.61 286.67,-12.85 285.02,-13.32 283.37,-13.79 282.14,-14.39 280.90,-14.99 279.23,-15.67 277.55,-16.35 276.52,-16.68 275.50,-17.02 273.82,-17.68 272.15,-18.35 270.50,-19.00 268.85,-19.65 267.67,-20.04 266.49,-20.43 265.27,-20.82 264.05,-21.21 261.98,-21.89 259.91,-22.58 258.61,-23.15 257.30,-23.73 255.88,-24.31 254.46,-24.89 253.09,-25.54 251.72,-26.19 250.48,-26.93 249.25,-27.68 248.02,-28.38 246.79,-29.09 245.70,-29.95 244.61,-30.82 243.89,-32.17 243.17,-33.53 243.10,-34.96 243.04,-36.39 243.33,-37.60 243.63,-38.81 243.62,-40.75 243.61,-42.69 243.89,-43.04 244.17,-43.38 244.53,-43.65 244.88,-43.92 245.30,-44.09 245.71,-44.26 246.15,-44.33 246.59,-44.40 247.03,-44.37 247.47,-44.33 247.90,-44.19 248.32,-44.05 248.70,-43.81 249.07,-43.57 249.38,-43.25 249.69,-42.92 249.91,-42.54 250.13,-42.15 250.26,-41.72 250.38,-41.29 250.40,-40.85 250.41,-40.40 250.32,-39.97 250.23,-39.53 250.04,-39.13 249.85,-38.73 249.67,-38.44 249.50,-38.16 248.82,-37.15 248.14,-36.15 247.28,-34.92 246.43,-33.70 245.68,-32.52 244.93,-31.35 244.29,-30.41 243.65,-29.47 242.80,-28.28 241.95,-27.09 241.12,-25.84 240.30,-24.58 239.40,-23.29 238.50,-21.99 237.74,-21.00 236.98,-20.01 236.19,-18.89 235.40,-17.77 234.60,-16.83 233.79,-15.89 232.89,-14.94 231.99,-13.98 230.93,-12.99 229.87,-12.00 228.74,-11.26 227.61,-10.52 226.41,-9.83 225.22,-9.14 223.93,-8.49 222.65,-7.84 221.20,-7.49 219.76,-7.13 218.50,-7.09 217.24,-7.05 215.99,-7.08 214.75,-7.11 213.63,-7.13 212.51,-7.16 210.66,-7.14 208.81,-7.13 207.70,-7.11 206.59,-7.10 204.54,-7.14 202.48,-7.19 200.80,-7.45 199.11,-7.71 197.45,-8.01 195.79,-8.32 194.47,-8.59 193.14,-8.86 192.05,-9.17 190.96,-9.48 189.60,-9.98 188.24,-10.48 186.76,-11.12 185.28,-11.76 184.03,-12.37 182.78,-12.98 181.23,-13.72 179.69,-14.46 177.91,-15.34 176.13,-16.22 174.63,-17.11 173.14,-18.00 171.85,-19.00 170.57,-19.99 169.47,-20.99 168.37,-21.98 167.28,-23.06 166.18,-24.14 165.27,-25.39 164.35,-26.64 163.79,-27.64 163.24,-28.64 162.86,-29.64 162.49,-30.65 162.43,-31.99 162.38,-33.33 162.39,-34.43 162.41,-35.54 162.49,-36.63 162.58,-37.72 162.76,-38.13 162.95,-38.54 163.23,-38.89 163.51,-39.25 163.87,-39.53 164.22,-39.80 164.63,-39.99 165.05,-40.17 165.49,-40.25 165.94,-40.33 166.39,-40.30 166.84,-40.28 167.27,-40.14 167.70,-40.00 168.09,-39.77 168.47,-39.53 168.79,-39.21 169.11,-38.89 169.34,-38.51 169.58,-38.12 169.71,-37.69 169.84,-37.25 169.87,-36.80 169.89,-36.35 169.81,-35.91 169.73,-35.46 169.71,-35.42 169.70,-35.37 168.75,-33.88 167.79,-32.40 167.07,-31.46 166.35,-30.53 165.29,-29.53 164.23,-28.53 163.16,-27.52 162.09,-26.51 161.08,-25.51 160.07,-24.51 159.23,-23.67 158.38,-22.83 157.61,-22.04 156.84,-21.26 155.97,-20.37 155.11,-19.48 154.04,-18.49 152.96,-17.49 151.75,-16.63 150.53,-15.76 149.61,-15.06 148.70,-14.36 147.30,-13.44 145.90,-12.52 144.67,-11.97 143.44,-11.42 141.89,-10.89 140.34,-10.36 138.33,-9.87 136.31,-9.39 135.23,-9.13 134.15,-8.87 133.09,-8.64 132.03,-8.41 130.24,-8.20 128.46,-8.00 127.23,-8.01 126.01,-8.01 124.93,-8.05 123.86,-8.09 122.53,-8.23 121.21,-8.36 119.52,-8.83 117.83,-9.29 116.76,-9.63 115.70,-9.98 114.44,-10.37 113.19,-10.76 112.07,-11.15 110.94,-11.54 109.36,-12.16 107.77,-12.78 106.73,-13.18 105.69,-13.58 104.81,-14.23 103.94,-14.87 102.99,-15.87 102.05,-16.87 100.85,-18.28 99.66,-19.69 98.78,-21.07 97.90,-22.45 97.30,-23.67 96.70,-24.89 96.36,-26.63 96.02,-28.38 96.05,-29.55 96.09,-30.72 96.38,-31.88 96.66,-33.05 97.30,-32.16 97.93,-31.26 99.69,-30.78 101.45,-30.29 100.55,-28.95 99.65,-27.60 98.86,-26.11 98.08,-24.62 97.24,-23.22 96.40,-21.82 95.62,-21.01 94.85,-20.21 93.95,-19.21 93.05,-18.22 92.13,-17.15 91.21,-16.08 90.46,-15.20 89.71,-14.32 88.82,-13.33 87.92,-12.35 86.80,-11.40 85.69,-10.46 84.30,-9.55 82.91,-8.63 81.23,-7.69 79.55,-6.76 78.61,-6.27 77.66,-5.78 75.87,-4.93 74.08,-4.07 72.64,-3.46 71.20,-2.85 69.41,-2.32 67.62,-1.79 66.17,-1.73 64.72,-1.66 63.60,-1.71 62.47,-1.75 61.04,-1.92 59.61,-2.10 57.97,-2.35 56.32,-2.61 54.77,-2.85 53.21,-3.09 51.60,-3.45 49.99,-3.81 48.93,-4.13 47.87,-4.45 46.41,-4.98 44.94,-5.52 43.67,-6.48 42.40,-7.44 41.33,-8.43 40.25,-9.41 39.28,-10.62 38.32,-11.83 37.62,-12.64 36.92,-13.45 36.24,-14.42 35.55,-15.39 35.41,-17.04 35.28,-18.69 35.29,-19.90 35.31,-21.11 35.33,-22.22 35.35,-23.34 35.95,-24.42 36.55,-25.50 38.75,-24.69 40.95,-23.89 40.76,-22.85 40.58,-21.80 40.43,-20.68 40.28,-19.56 39.56,-18.21 38.84,-16.85 37.88,-15.67 36.91,-14.49 35.59,-13.17 34.26,-11.84 32.63,-10.52 31.01,-9.19 29.39,-8.28 27.78,-7.37 26.23,-6.67 24.69,-5.98 22.87,-5.14 21.04,-4.30 20.06,-3.88 19.07,-3.45 18.08,-3.01 17.08,-2.57 16.02,-2.09 14.97,-1.62 13.82,-1.14 12.67,-0.65 11.37,-0.17 10.07,0.31 8.55,0.78 7.04,1.25 5.37,1.62 3.70,1.99 1.98,2.23 0.26,2.47 -0.03,2.46 -0.33,2.46 -0.62,2.38 -0.91,2.31 -1.17,2.16 -1.43,2.02 -1.66,1.82 -1.88,1.62 -2.04,1.37 -2.21,1.12 -2.31,0.84 -2.42,0.56 -2.45,0.26 -2.48,-0.03 -2.44,-0.33 -2.40,-0.62 -2.29,-0.90 -2.18,-1.18 -2.01,-1.42 -1.83,-1.67 -1.61,-1.86 -1.38,-2.06 -1.11,-2.20 -0.84,-2.33 -0.55,-2.40 -0.26,-2.47 -0.26,-2.47 L -0.26,-2.47 Z"/>
  </g>
</svg>
