<svg xmlns="http://www.w3.org/2000/svg" viewBox="0 0 352.54296875 55.36328125">
  <g transform="translate(10 45.36328125) rotate(0 166.271484375 -17.681640625)" stroke="none">
    <path fill="#1971c2" d="M -0.37,-2.47 Q -0.37,-2.47 0.82,-2.68 2.02,-2.89 3.90,-3.59 5.77,-4.28 6.87,-4.76 7.97,-5.23 9.12,-5.77 10.27,-6.31 11.41,-6.91 12.55,-7.52 13.70,-8.16 14.84,-8.80 15.86,-9.44 16.89,-10.07 18.53,-11.32 20.16,-12.56 21.01,-13.24 21.86,-13.93 22.80,-14.70 23.74,-15.46 24.83,-16.30 25.91,-17.14 27.03,-18.00 28.15,-18.86 29.12,-19.68 30.08,-20.51 30.95,-21.32 31.81,-22.14 32.62,-22.96 33.43,-23.78 34.12,-24.60 34.81,-25.41 35.91,-27.03 37.01,-28.65 37.86,-30.20 38.72,-31.75 39.30,-32.96 39.89,-34.18 40.23,-34.84 40.57,-35.49 40.79,-35.78 41.02,-36.08 41.31,-36.31 41.60,-36.54 41.94,-36.70 42.28,-36.85 42.64,-36.92 43.01,-36.99 43.38,-36.97 43.75,-36.95 44.11,-36.85 44.46,-36.74 44.78,-36.55 45.10,-36.36 45.37,-36.10 45.63,-35.84 45.83,-35.52 46.02,-35.21 46.14,-34.85 46.25,-34.50 46.27,-34.13 46.30,-33.76 46.24,-33.39 46.17,-33.02 46.02,-32.68 45.87,-32.34 45.85,-33.92 45.82,-35.49 46.12,-34.36 46.42,-33.22 46.49,-32.09 46.56,-30.96 46.61,-29.79 46.67,-28.62 47.52,-27.71 48.38,-26.80 49.12,-25.95 49.86,-25.10 50.77,-24.21 51.69,-23.31 52.74,-22.61 53.80,-21.92 54.88,-21.23 55.97,-20.55 57.16,-19.91 58.36,-19.27 59.56,-18.67 60.75,-18.06 62.20,-17.55 63.65,-17.03 64.99,-16.59 66.32,-16.15 67.36,-15.85 68.40,-15.55 69.56,-15.35 70.73,-15.16 72.27,-15.14 73.82,-15.12 75.01,-15.12 76.21,-15.12 77.65,-15.11 79.10,-15.09 81.02,-15.05 82.94,-15.01 84.80,-15.11 86.67,-15.22 88.36,-15.67 90.05,-16.12 91.70,-16.78 93.35,-17.45 94.73,-18.19 96.11,-18.93 97.42,-19.81 98.74,-20.68 99.95,-21.64 101.17,-22.60 102.44,-23.63 103.72,-24.66 104.71,-25.64 105.70,-26.62 106.67,-27.66 107.64,-28.71 108.49,-29.76 109.35,-30.81 110.14,-31.75 110.94,-32.69 112.27,-33.10 113.60,-33.51 114.79,-33.11 115.97,-32.72 116.59,-31.48 117.22,-30.23 117.27,-29.10 117.31,-27.96 117.34,-26.87 117.37,-25.78 118.50,-25.10 119.63,-24.43 121.11,-23.69 122.58,-22.96 124.39,-22.00 126.19,-21.05 127.73,-20.27 129.26,-19.49 130.62,-18.86 131.98,-18.23 133.13,-17.67 134.28,-17.10 135.32,-16.82 136.35,-16.54 137.45,-16.19 138.55,-15.83 140.15,-15.40 141.74,-14.97 143.41,-14.76 145.09,-14.56 146.88,-14.41 148.67,-14.25 150.11,-14.22 151.56,-14.19 152.86,-14.26 154.15,-14.34 155.52,-14.83 156.88,-15.31 158.49,-16.16 160.10,-17.00 161.65,-17.95 163.21,-18.90 164.98,-20.00 166.76,-21.10 167.71,-21.65 168.66,-22.20 169.59,-22.72 170.53,-23.24 172.24,-24.26 173.95,-25.28 174.84,-25.87 175.73,-26.45 176.70,-27.07 177.66,-27.70 178.61,-28.36 179.57,-29.02 180.51,-29.69 181.46,-30.36 182.82,-31.43 184.17,-32.50 185.20,-33.39 186.23,-34.29 188.32,-34.20 190.41,-34.10 191.06,-32.51 191.72,-30.92 191.73,-29.79 191.74,-28.65 192.84,-28.12 193.93,-27.59 195.15,-26.66 196.38,-25.73 197.48,-24.79 198.59,-23.85 199.56,-23.08 200.53,-22.31 202.14,-20.83 203.76,-19.35 204.58,-18.56 205.40,-17.76 206.44,-16.84 207.48,-15.93 208.67,-15.39 209.85,-14.86 210.89,-14.51 211.92,-14.17 213.07,-13.95 214.22,-13.72 216.26,-13.40 218.29,-13.08 219.63,-12.85 220.97,-12.61 222.25,-12.40 223.53,-12.18 224.65,-12.04 225.77,-11.90 227.88,-11.71 229.99,-11.53 231.40,-11.44 232.81,-11.35 234.58,-11.22 236.35,-11.10 238.29,-10.96 240.23,-10.83 242.05,-10.75 243.88,-10.68 245.42,-10.71 246.96,-10.73 248.12,-10.90 249.28,-11.07 250.72,-11.72 252.16,-12.36 253.03,-13.19 253.90,-14.01 254.77,-15.01 255.64,-16.01 256.57,-17.18 257.50,-18.35 258.31,-19.38 259.11,-20.41 259.89,-21.27 260.67,-22.13 261.37,-23.09 262.06,-24.04 262.85,-25.19 263.63,-26.34 265.78,-27.51 267.92,-28.68 269.43,-27.56 270.94,-26.45 271.87,-25.42 272.80,-24.39 273.54,-23.37 274.28,-22.36 275.03,-21.47 275.79,-20.58 276.75,-20.04 277.71,-19.49 278.71,-19.10 279.72,-18.70 280.74,-18.36 281.77,-18.03 283.14,-17.66 284.52,-17.30 285.66,-17.11 286.80,-16.91 287.94,-16.78 289.07,-16.66 290.42,-16.48 291.77,-16.29 293.15,-16.19 294.52,-16.10 295.83,-16.07 297.14,-16.05 298.77,-16.02 300.40,-15.99 302.20,-16.09 303.99,-16.19 305.37,-16.65 306.76,-17.11 308.02,-17.79 309.29,-18.46 310.51,-19.22 311.73,-19.97 312.63,-20.58 313.54,-21.18 314.45,-21.88 315.35,-22.58 316.47,-23.58 317.59,-24.59 318.66,-25.50 319.72,-26.40 320.85,-27.48 321.98,-28.56 322.82,-29.33 323.65,-30.10 324.65,-31.10 325.65,-32.10 326.44,-33.09 327.24,-34.07 328.32,-35.53 329.40,-37.00 329.75,-37.46 330.09,-37.92 330.56,-38.24 331.03,-38.56 331.59,-38.72 332.14,-38.88 332.71,-38.85 333.28,-38.82 333.81,-38.61 334.35,-38.40 334.79,-38.03 335.22,-37.66 335.52,-37.18 335.82,-36.69 335.95,-36.13 336.07,-35.57 336.01,-35.00 335.95,-34.43 335.72,-33.91 335.48,-33.39 335.09,-32.97 334.70,-32.55 334.19,-32.28 333.69,-32.01 333.12,-31.91 332.56,-31.82 331.99,-31.91 331.42,-32.00 330.92,-32.26 330.41,-32.53 330.01,-32.94 329.62,-33.36 329.37,-33.87 329.13,-34.39 329.07,-34.96 329.00,-35.53 329.12,-36.09 329.24,-36.65 329.53,-37.14 329.83,-37.64 330.26,-38.01 330.70,-38.38 331.23,-38.60 331.76,-38.81 332.33,-38.85 332.90,-38.88 333.46,-38.73 334.01,-38.58 334.48,-38.26 334.96,-37.94 335.31,-37.49 335.66,-37.03 335.84,-36.49 336.03,-35.95 336.03,-35.38 336.04,-34.80 335.85,-34.26 335.67,-33.72 335.67,-33.72 335.68,-33.72 334.58,-32.16 333.49,-30.61 332.71,-29.60 331.93,-28.59 330.81,-27.30 329.68,-26.01 328.63,-24.98 327.58,-23.95 326.54,-23.01 325.50,-22.07 324.54,-21.25 323.59,-20.42 322.60,-19.57 321.61,-18.72 320.65,-17.91 319.70,-17.10 318.61,-16.28 317.53,-15.45 316.41,-14.73 315.30,-14.00 314.05,-13.28 312.81,-12.56 311.62,-11.92 310.44,-11.28 308.91,-10.69 307.38,-10.09 306.17,-9.73 304.97,-9.36 303.73,-9.17 302.49,-8.97 300.58,-8.90 298.68,-8.83 297.18,-8.81 295.68,-8.79 294.39,-8.80 293.09,-8.81 291.93,-8.93 290.77,-9.04 289.60,-9.21 288.43,-9.39 287.01,-9.58 285.58,-9.77 284.37,-10.01 283.17,-10.24 281.87,-10.54 280.57,-10.84 279.48,-11.20 278.38,-11.57 276.81,-12.17 275.25,-12.76 273.90,-13.52 272.56,-14.27 271.45,-15.21 270.34,-16.14 269.56,-17.12 268.78,-18.10 267.84,-19.40 266.89,-20.69 266.10,-22.05 265.30,-23.41 267.13,-22.88 268.97,-22.35 268.15,-21.29 267.34,-20.24 266.62,-19.37 265.91,-18.50 264.86,-17.49 263.81,-16.47 262.91,-15.47 262.01,-14.47 260.97,-13.34 259.93,-12.21 258.71,-11.04 257.49,-9.87 255.90,-8.79 254.31,-7.70 253.28,-7.30 252.25,-6.89 251.04,-6.62 249.82,-6.34 248.44,-6.22 247.06,-6.10 245.47,-6.06 243.87,-6.02 242.04,-5.95 240.22,-5.88 238.26,-5.75 236.31,-5.63 234.49,-5.53 232.68,-5.43 231.13,-5.41 229.58,-5.38 227.34,-5.54 225.11,-5.69 223.90,-5.80 222.69,-5.91 221.42,-6.03 220.15,-6.16 218.79,-6.27 217.44,-6.38 215.37,-6.59 213.30,-6.80 212.16,-7.01 211.03,-7.23 209.75,-7.62 208.47,-8.01 206.82,-8.72 205.18,-9.42 204.09,-10.17 203.00,-10.92 201.94,-11.88 200.87,-12.84 200.05,-13.55 199.23,-14.26 197.63,-15.55 196.04,-16.85 194.99,-17.72 193.94,-18.60 193.00,-19.39 192.06,-20.18 191.12,-20.90 190.18,-21.62 189.31,-22.23 188.44,-22.85 187.51,-23.78 186.58,-24.71 185.85,-26.03 185.12,-27.35 185.09,-28.63 185.06,-29.91 185.23,-30.98 185.39,-32.05 186.02,-30.80 186.66,-29.55 188.34,-29.39 190.03,-29.23 189.00,-28.48 187.97,-27.73 186.47,-26.62 184.98,-25.50 184.04,-24.80 183.09,-24.11 182.08,-23.35 181.06,-22.60 180.11,-21.95 179.17,-21.30 178.23,-20.66 177.28,-20.02 175.45,-18.89 173.61,-17.76 171.86,-16.73 170.11,-15.69 168.42,-14.61 166.74,-13.52 165.02,-12.44 163.30,-11.35 162.35,-10.79 161.39,-10.23 160.33,-9.69 159.28,-9.15 158.23,-8.73 157.17,-8.31 156.06,-8.00 154.95,-7.70 153.20,-7.60 151.45,-7.50 149.79,-7.55 148.13,-7.60 146.39,-7.72 144.65,-7.84 143.54,-7.90 142.43,-7.96 141.34,-8.11 140.25,-8.26 138.31,-8.72 136.37,-9.18 134.90,-9.70 133.43,-10.22 132.32,-10.58 131.22,-10.95 130.19,-11.47 129.17,-12.00 127.71,-12.66 126.25,-13.32 124.65,-14.09 123.05,-14.85 121.27,-15.67 119.48,-16.49 118.16,-17.10 116.84,-17.70 115.57,-18.37 114.29,-19.04 113.49,-19.78 112.69,-20.53 111.83,-21.75 110.97,-22.97 110.62,-24.63 110.26,-26.29 110.89,-27.26 111.52,-28.24 113.32,-27.74 115.12,-27.23 114.35,-26.38 113.59,-25.53 112.52,-24.31 111.46,-23.10 110.31,-21.95 109.17,-20.80 107.84,-19.65 106.52,-18.50 105.19,-17.48 103.87,-16.46 102.40,-15.39 100.93,-14.31 99.31,-13.33 97.69,-12.35 95.86,-11.50 94.02,-10.65 93.01,-10.25 91.99,-9.85 90.96,-9.52 89.93,-9.19 88.75,-8.89 87.57,-8.59 86.36,-8.41 85.15,-8.23 83.03,-8.15 80.90,-8.06 79.23,-8.04 77.55,-8.01 76.26,-8.01 74.98,-8.01 73.78,-8.01 72.59,-8.02 71.36,-8.05 70.13,-8.08 68.92,-8.27 67.71,-8.46 66.51,-8.77 65.31,-9.08 64.09,-9.49 62.87,-9.89 61.59,-10.29 60.30,-10.68 58.95,-11.22 57.59,-11.76 56.36,-12.37 55.13,-12.99 53.75,-13.70 52.37,-14.41 51.08,-15.20 49.79,-15.98 48.76,-16.67 47.72,-17.37 46.64,-18.38 45.55,-19.38 44.75,-20.31 43.95,-21.24 43.14,-22.24 42.33,-23.24 41.73,-24.14 41.12,-25.03 40.57,-26.30 40.02,-27.57 40.00,-28.84 39.99,-30.11 40.34,-31.17 40.70,-32.23 40.64,-33.86 40.57,-35.49 40.79,-35.78 41.02,-36.08 41.31,-36.31 41.60,-36.54 41.94,-36.70 42.28,-36.85 42.64,-36.92 43.01,-36.99 43.38,-36.97 43.75,-36.95 44.11,-36.85 44.46,-36.74 44.78,-36.55 45.10,-36.36 45.37,-36.10 45.63,-35.84 45.83,-35.52 46.02,-35.21 46.14,-34.85 46.25,-34.50 46.27,-34.13 46.30,-33.76 46.24,-33.39 46.17,-33.02 46.02,-32.68 45.87,-32.34 45.51,-31.82 45.14,-31.30 44.47,-30.13 43.79,-28.96 42.73,-27.24 41.68,-25.52 41.05,-24.62 40.42,-23.73 39.68,-22.77 38.95,-21.82 38.11,-20.88 37.27,-19.93 36.38,-19.07 35.50,-18.20 34.54,-17.31 33.58,-16.43 32.54,-15.53 31.49,-14.62 30.40,-13.74 29.32,-12.86 28.28,-12.01 27.24,-11.17 26.26,-10.37 25.28,-9.57 24.37,-8.87 23.45,-8.17 22.55,-7.53 21.66,-6.88 20.67,-6.22 19.67,-5.55 18.55,-4.87 17.43,-4.19 16.23,-3.51 15.03,-2.83 13.79,-2.17 12.54,-1.50 11.29,-0.91 10.05,-0.32 8.86,0.16 7.67,0.66 6.48,1.08 5.29,1.51 4.04,1.83 2.80,2.15 1.59,2.31 0.37,2.47 0.07,2.48 -0.22,2.49 -0.52,2.43 -0.81,2.37 -1.08,2.23 -1.36,2.10 -1.59,1.91 -1.82,1.71 -2.00,1.47 -2.18,1.23 -2.29,0.95 -2.41,0.67 -2.46,0.37 -2.50,0.07 -2.47,-0.22 -2.45,-0.52 -2.35,-0.81 -2.25,-1.09 -2.09,-1.35 -1.92,-1.60 -1.70,-1.81 -1.48,-2.01 -1.22,-2.16 -0.95,-2.31 -0.66,-2.39 -0.37,-2.47 -0.37,-2.47 L -0.37,-2.47 Z"/>
  </g>
</svg>
